<?xml version="1.0" encoding="utf-8"?>
<!-- Generator: Adobe Illustrator 21.0.2, SVG Export Plug-In . SVG Version: 6.00 Build 0)  -->
<svg version="1.1" id="Layer_1" xmlns="http://www.w3.org/2000/svg" xmlns:xlink="http://www.w3.org/1999/xlink" x="0px" y="0px"
	 viewBox="0 0 120 150" style="enable-background:new 0 0 120 150;" xml:space="preserve">
<style type="text/css">
	.st0{fill:#3D58A6;}
</style>
<path class="st0" d="M102.4,92.9c-0.8-0.7-2.1-0.6-2.8,0.2l-13.7,16.1l-8.7-6.9c-0.9-0.7-2.1-0.5-2.8,0.3c-0.7,0.9-0.5,2.1,0.3,2.8
	l10.2,8.1c0.4,0.3,0.8,0.4,1.2,0.4c0.6,0,1.1-0.2,1.5-0.7l14.9-17.5C103.4,94.8,103.3,93.6,102.4,92.9z M88.6,126.1
	c-1.1,0-2,0.9-2,2c0,3.3-2.7,5.9-5.9,5.9H28.2c-3.3,0-5.9-2.6-5.9-5.9V20.2c0-3.3,2.7-5.9,5.9-5.9h52.5c3.3,0,5.9,2.6,5.9,5.9v60.3
	c0,1.1,0.9,2,2,2c1.1,0,2-0.9,2-2V46.8c1.5-0.3,2.6-1.6,2.6-3.2V35c0-1.6-1.1-2.9-2.6-3.2V20.2c0-5.4-4.4-9.8-9.9-9.8H28.2
	c-5.5,0-9.9,4.4-9.9,9.8V128c0,5.4,4.4,9.8,9.9,9.8h52.5c5,0,9.2-3.7,9.8-8.6c0.1-0.2,0.1-0.4,0.1-0.6V128
	C90.5,126.9,89.7,126.1,88.6,126.1z M64.3,20.4c1.1,0,2-0.9,2-2c0-1.1-0.9-2-2-2H44.5c-1.1,0-2,0.9-2,2c0,1.1,0.9,2,2,2H64.3z
	 M48.9,127.1c0,3,2.5,5.5,5.5,5.5c3,0,5.5-2.5,5.5-5.5c0-3-2.5-5.5-5.5-5.5C51.4,121.7,48.9,124.1,48.9,127.1z M56,127.1
	c0,0.8-0.7,1.5-1.5,1.5s-1.5-0.7-1.5-1.5s0.7-1.5,1.5-1.5S56,126.3,56,127.1z M78,82.3c1.2,0,2.2-1,2.2-2.2V36.1
	c0-3.7-3.5-6.9-7.6-6.9H36.9c-4.2,0-7.6,3.4-7.6,7.5v73.5c0,4.2,3.4,7.5,7.6,7.5h31.2c1.2,0,2.2-1,2.2-2.2s-1-2.2-2.2-2.2H36.9
	c-1.8,0-3.2-1.4-3.2-3.2V36.7c0-1.8,1.4-3.2,3.2-3.2h35.7c1.9,0,3.2,1.5,3.2,2.5v44.1C75.9,81.3,76.8,82.3,78,82.3z"/>
</svg>
