<?xml version="1.0" encoding="utf-8"?>
<!-- Generator: Adobe Illustrator 21.0.2, SVG Export Plug-In . SVG Version: 6.00 Build 0)  -->
<svg version="1.1" id="Layer_1" xmlns="http://www.w3.org/2000/svg" xmlns:xlink="http://www.w3.org/1999/xlink" x="0px" y="0px"
	 viewBox="0 0 120 150" style="enable-background:new 0 0 120 150;" xml:space="preserve">
<style type="text/css">
	.st0{fill:#3D58A6;}
</style>
<g>
	<path class="st0" d="M47.7,138.8c0.7,0.9,1.8,1.5,3,1.5h48.2c1.6,0,3-1,3.6-2.4c0.1-0.2,1-2.6,1.4-3.6c1-2.8,2-5.8,2.9-9
		c1.5-5.1,2.7-10.1,3.4-14.8c1.6-10.2,1.2-18.4-2.2-24c-3.5-5.8-9.9-10-18.1-13c-4.3-1.5-8.9-2.7-13.4-3.4c-1.6-0.3-2.6-0.4-2.6-0.4
		v-35c0-6.3-5.2-11.5-11.6-11.5h-1.9c-6.4,0-11.6,5.2-11.6,11.5l0,60.6L36,84.2c-8.2-7.2-19.7-5.3-25.1,4.2
		c-0.8,1.5-0.7,3.2,0.3,4.4L47.7,138.8z M20.2,89.1c3.1-2.4,7.3-2.2,10.8,0.8l19.2,16.7c2.5,2.2,6.4,0.4,6.4-2.9V34.7
		c0-2.1,1.7-3.8,3.9-3.8h1.9c2.1,0,3.9,1.7,3.9,3.8v38.4c0,2,1.6,3.7,3.6,3.8c0.2,0,0.7,0.1,1.4,0.1c1.2,0.1,2.5,0.3,4,0.6
		c4.1,0.7,8.3,1.7,12.1,3.1c6.8,2.4,11.7,5.7,14.2,9.7c2.2,3.6,2.6,10.2,1.2,18.8c-0.7,4.4-1.8,9.1-3.2,13.9c-0.9,3-1.8,5.9-2.8,8.6
		c-0.3,0.9-0.3,0.9-0.3,0.9H52.7L19,90.3C19,90.3,19.5,89.6,20.2,89.1z"/>
	<path class="st0" d="M86.8,30.4C84.4,18.6,73.9,9.8,61.4,9.8c-14.4,0-26,11.6-26,25.9c0,9.6,5.3,18.3,13.6,22.8
		c1.9,1,4.2,0.3,5.2-1.5c1-1.9,0.3-4.2-1.5-5.2c-5.9-3.2-9.6-9.3-9.6-16c0-10.1,8.2-18.2,18.3-18.2s18.3,8.2,18.3,18.2
		c0,6.7-3.6,12.7-9.4,15.9c-1.9,1-2.5,3.4-1.5,5.2c1,1.9,3.4,2.5,5.2,1.5c7.5-4.2,12.4-11.7,13.2-20.2h11.3V42c0,1,0.7,1.4,1.6,0.8
		l10.3-7.4c0.9-0.6,0.9-1.6,0-2.2l-10.3-7.4c-0.9-0.6-1.6-0.3-1.6,0.8v3.8H86.8L86.8,30.4z"/>
</g>
</svg>
