<?xml version="1.0" encoding="utf-8"?>
<!-- Generator: Adobe Illustrator 21.0.2, SVG Export Plug-In . SVG Version: 6.00 Build 0)  -->
<svg version="1.1" id="Layer_1" xmlns="http://www.w3.org/2000/svg" xmlns:xlink="http://www.w3.org/1999/xlink" x="0px" y="0px"
	 viewBox="0 0 120 50" style="enable-background:new 0 0 120 50;" xml:space="preserve">
<style type="text/css">
	.st0{fill:#EE4036;}
</style>
<g>
	<g>
		<path class="st0" d="M17.4,35.3c-0.1,0-0.3-0.1-0.5-0.2l-5.8-5.6c-0.3-0.3-0.5-0.5-0.6-0.6c-0.1-0.1-0.3-0.3-0.4-0.5
			c-0.1-0.2-0.2-0.4-0.2-0.7v-0.8c0-0.3,0.1-0.5,0.2-0.7c0.2-0.2,0.3-0.4,0.4-0.5c0.1-0.1,0.3-0.3,0.6-0.6l5.8-5.8
			c0.2-0.1,0.3-0.2,0.5-0.2c0.2,0,0.4,0.1,0.5,0.2c0.1,0.2,0.2,0.3,0.2,0.5v0.9c0,0.1,0,0.2,0,0.3c0,0.1-0.1,0.2-0.1,0.2
			s-0.1,0.2-0.1,0.2c-0.1,0.1-0.1,0.2-0.1,0.2c0,0.1-0.1,0.1-0.2,0.2S17.5,22,17.5,22s-0.1,0.1-0.2,0.2c-0.1,0.1-0.2,0.2-0.2,0.2
			L12.6,27c-0.1,0.1-0.2,0.2-0.2,0.3s0.1,0.2,0.2,0.3l4.5,4.4c0.1,0.1,0.1,0.1,0.2,0.2c0.1,0.1,0.2,0.2,0.2,0.2
			c0.1,0.1,0.1,0.1,0.2,0.2c0.1,0.1,0.1,0.1,0.2,0.2c0.1,0.1,0.1,0.1,0.1,0.2C18,32.9,18,33,18.1,33c0,0.1,0.1,0.2,0.1,0.2
			c0,0.1,0,0.2,0,0.3v1c0,0.2-0.1,0.4-0.2,0.5C17.7,35.2,17.6,35.3,17.4,35.3z"/>
		<path class="st0" d="M23,41.1c-0.1,0-0.2-0.2-0.2-0.4v-0.1c0-0.1,0-0.1,0-0.1l4.7-29.4c0.1-0.4,0.2-0.6,0.4-0.6h2.8
			c0.2,0,0.2,0.2,0.2,0.4c0,0.1,0,0.2,0,0.2l-4.7,29.4c-0.1,0.4-0.2,0.6-0.4,0.6H23z"/>
		<path class="st0" d="M35.3,37.7c-0.2,0-0.3-0.1-0.4-0.2s-0.1-0.3-0.1-0.6V14.7c0-0.3,0.1-0.6,0.1-0.6C35,14,35.1,14,35.3,14h2.9
			c0.2,0,0.3,0.1,0.4,0.2c0.1,0.1,0.1,0.3,0.1,0.6v8.8c0,0.1,0,0.2,0.1,0.3c0.1,0.1,0.1,0.1,0.2,0.1h6c0.1,0,0.1-0.1,0.2-0.1
			c0.1-0.1,0.1-0.2,0.1-0.3v-8.8c0-0.3,0.1-0.5,0.2-0.6c0.1-0.1,0.2-0.2,0.4-0.2h3c0.2,0,0.3,0.1,0.4,0.2c0.1,0.1,0.1,0.3,0.1,0.6
			v22.2c0,0.3-0.1,0.6-0.1,0.6c-0.1,0.1-0.2,0.2-0.4,0.2h-3c-0.1,0-0.2,0-0.3-0.1c-0.1-0.1-0.1-0.1-0.2-0.2
			c-0.1-0.1-0.1-0.3-0.1-0.5V26.8c0-0.3-0.1-0.4-0.2-0.4h-6c-0.2,0-0.2,0.1-0.2,0.4v10.1c0,0.3-0.1,0.5-0.2,0.6s-0.2,0.2-0.4,0.2
			H35.3z"/>
		<path class="st0" d="M56.5,37.7c-0.2,0-0.3-0.1-0.4-0.2C56,37.4,56,37.2,56,36.9V17c0-0.3-0.1-0.4-0.2-0.4h-3.5
			c-0.2,0-0.2,0-0.3,0c-0.1,0-0.1-0.1-0.2-0.2c-0.1-0.1-0.1-0.3-0.1-0.5v-1.3c0-0.3,0.1-0.5,0.1-0.6C52,14,52.1,14,52.3,14h11.3
			c0.2,0,0.3,0.1,0.4,0.2c0.1,0.1,0.1,0.3,0.1,0.6V16c0,0.3-0.1,0.5-0.1,0.5s-0.2,0.1-0.4,0.1h-3.4c-0.2,0-0.2,0.2-0.2,0.4v19.9
			c0,0.3-0.1,0.6-0.2,0.7c-0.1,0.1-0.2,0.2-0.4,0.2L56.5,37.7L56.5,37.7z"/>
		<path class="st0" d="M66.9,37.7c-0.3,0-0.5-0.3-0.5-0.8v-0.1l0.9-21.9c0-0.6,0.2-0.9,0.5-0.9H71c0.2,0,0.4,0.1,0.5,0.2
			c0.2,0.1,0.3,0.3,0.3,0.6l3.4,15.6c0,0.1,0.1,0.1,0.1,0.1c0.1,0,0.1,0,0.1,0c0.1,0,0.1-0.1,0.1-0.1l3.4-15.5
			c0.1-0.5,0.4-0.8,0.8-0.8h3.2c0.3,0,0.5,0.4,0.5,0.9l0.9,21.9v0.1c0,0.5-0.2,0.8-0.5,0.8h-2.2c-0.3,0-0.5-0.3-0.5-0.9l-0.6-17
			c0-0.1,0-0.1-0.1-0.1c-0.1,0-0.1,0-0.1,0.1l-3.6,17.1c-0.1,0.5-0.4,0.8-0.7,0.8h-1.3c-0.3,0-0.6-0.3-0.7-0.8l-3.5-17
			c0-0.1-0.1-0.1-0.1-0.1c0,0,0,0.1,0,0.1l-0.7,16.9c0,0.6-0.2,0.9-0.5,0.9L66.9,37.7L66.9,37.7z"/>
		<path class="st0" d="M88.9,37.7c-0.2,0-0.3-0.1-0.4-0.2c-0.1-0.1-0.1-0.3-0.1-0.6V14.7c0-0.3,0.1-0.6,0.1-0.6
			c0.1-0.1,0.2-0.2,0.4-0.2h3c0.2,0,0.3,0.1,0.4,0.2c0.1,0.1,0.1,0.3,0.1,0.6v20c0,0.3,0.1,0.4,0.3,0.4h5.2c0.2,0,0.3,0.1,0.4,0.1
			c0.1,0.1,0.1,0.3,0.1,0.5V37c0,0.3-0.1,0.5-0.1,0.6c-0.1,0.1-0.2,0.1-0.4,0.1H88.9z"/>
		<path class="st0" d="M102.8,35.3c-0.2,0-0.4-0.1-0.5-0.2s-0.2-0.3-0.2-0.5v-0.9c0-0.1,0-0.2,0-0.2c0-0.1,0-0.2,0.1-0.2
			c0-0.1,0.1-0.1,0.1-0.2c0.1-0.1,0.1-0.1,0.1-0.2s0.1-0.1,0.1-0.2c0.1-0.1,0.1-0.1,0.1-0.2s0.1-0.1,0.1-0.2
			c0.1-0.1,0.1-0.1,0.2-0.2c0.1,0,0.1-0.1,0.2-0.2c0.1-0.1,0.2-0.1,0.2-0.2l4.5-4.6c0.1-0.1,0.2-0.2,0.2-0.3s-0.1-0.2-0.2-0.3
			l-4.4-4.4c-0.1-0.1-0.1-0.1-0.3-0.2c-0.1-0.1-0.2-0.2-0.2-0.2c-0.1-0.1-0.1-0.1-0.2-0.2c-0.1-0.1-0.2-0.2-0.2-0.2
			c0-0.1-0.1-0.1-0.1-0.2c-0.1-0.1-0.1-0.2-0.1-0.3c0-0.1,0-0.2,0-0.3v-1.1c0-0.2,0.1-0.4,0.2-0.5c0.1-0.1,0.3-0.2,0.5-0.2
			c0.2,0,0.3,0.1,0.5,0.2l5.8,5.7c0.3,0.3,0.5,0.5,0.6,0.6c0.1,0.1,0.2,0.3,0.3,0.5c0.1,0.2,0.2,0.5,0.2,0.7v0.8c0,0.1,0,0.2,0,0.3
			c0,0.1-0.1,0.2-0.1,0.2c-0.1,0.1-0.1,0.2-0.1,0.2c0,0.1-0.1,0.1-0.1,0.2c-0.1,0.1-0.1,0.2-0.1,0.2s-0.1,0.1-0.2,0.2
			c-0.1,0.1-0.2,0.2-0.2,0.2s-0.1,0.1-0.2,0.2c-0.1,0.1-0.2,0.2-0.2,0.2l-5.8,5.8C103.1,35.2,103,35.3,102.8,35.3z"/>
	</g>
</g>
</svg>
