<?xml version="1.0" encoding="utf-8"?>
<!-- Generator: Adobe Illustrator 21.0.2, SVG Export Plug-In . SVG Version: 6.00 Build 0)  -->
<svg version="1.1" id="Layer_1" xmlns="http://www.w3.org/2000/svg" xmlns:xlink="http://www.w3.org/1999/xlink" x="0px" y="0px"
	 viewBox="0 0 50 50" style="enable-background:new 0 0 50 50;" xml:space="preserve">
<style type="text/css">
	.st0{fill:#3D58A6;}
</style>
<path class="st0" d="M28.1,34.6v-3.5c0-0.8-0.2-1.1-0.7-1.1c-0.3,0-0.5,0.1-0.7,0.4v5.1c0.2,0.2,0.5,0.4,0.7,0.4
	C27.9,35.8,28.1,35.4,28.1,34.6L28.1,34.6z M32.3,31.9h1.5v-0.8c0-0.8-0.2-1.2-0.7-1.2c-0.5,0-0.7,0.4-0.7,1.2V31.9z M19.4,25.9v1.6
	h-1.8V37h-1.7v-9.5h-1.8v-1.6H19.4L19.4,25.9z M23.9,28.7V37h-1.5v-0.9c-0.6,0.7-1.2,1-1.7,1c-0.5,0-0.8-0.2-0.9-0.6
	c-0.1-0.2-0.1-0.6-0.1-1.2v-6.5h1.5v6.1c0,0.4,0,0.6,0,0.6c0,0.2,0.1,0.3,0.3,0.3c0.3,0,0.6-0.2,0.9-0.7v-6.3L23.9,28.7L23.9,28.7z
	 M29.6,31.2v3.3c0,0.8-0.1,1.3-0.2,1.6c-0.2,0.6-0.6,0.9-1.2,0.9c-0.5,0-1-0.3-1.5-0.9V37h-1.5V25.9h1.5v3.6c0.5-0.6,1-0.9,1.5-0.9
	c0.6,0,1,0.3,1.2,0.9C29.6,29.9,29.6,30.4,29.6,31.2z M35.3,34.2v0.2c0,0.4,0,0.8,0,1c0,0.3-0.2,0.6-0.3,0.9c-0.4,0.6-1,0.9-1.8,0.9
	c-0.8,0-1.4-0.3-1.8-0.9c-0.3-0.4-0.5-1.1-0.5-1.9v-2.9c0-0.9,0.2-1.5,0.5-1.9c0.4-0.6,1-0.9,1.8-0.9c0.8,0,1.4,0.3,1.8,0.9
	c0.3,0.4,0.5,1.1,0.5,1.9v1.7h-3v1.5c0,0.8,0.3,1.2,0.8,1.2c0.4,0,0.6-0.2,0.7-0.6c0,0,0-0.1,0-0.2s0-0.2,0-0.4v-0.5L35.3,34.2
	L35.3,34.2z M25.1,15.6v3.5c0,0.8-0.2,1.2-0.7,1.2c-0.5,0-0.7-0.4-0.7-1.2v-3.5c0-0.8,0.2-1.2,0.7-1.2
	C24.9,14.4,25.1,14.8,25.1,15.6z M37.1,31.6c0-2.7-0.1-4.6-0.4-5.9c-0.2-0.7-0.5-1.2-1-1.7c-0.5-0.4-1.1-0.7-1.7-0.8
	c-2-0.2-5.1-0.3-9.3-0.3c-4.1,0-7.2,0.1-9.3,0.3c-0.7,0.1-1.2,0.3-1.7,0.8c-0.5,0.4-0.8,1-1,1.7c-0.3,1.3-0.5,3.3-0.5,5.9
	c0,2.6,0.2,4.6,0.5,5.9c0.2,0.6,0.5,1.2,1,1.6c0.5,0.5,1.1,0.7,1.7,0.8c2.1,0.2,5.2,0.3,9.3,0.3s7.2-0.1,9.3-0.3
	c0.6-0.1,1.2-0.3,1.7-0.8c0.5-0.5,0.8-1,1-1.6C37,36.2,37.1,34.3,37.1,31.6z M20.1,17l2-6.7h-1.7l-1.2,4.4l-1.2-4.4h-1.8l0.5,1.6
	c0,0,0.2,0.5,0.5,1.6c0.5,1.5,0.9,2.7,1,3.6v4.5h1.7L20.1,17L20.1,17z M26.6,18.8v-2.9c0-0.9-0.2-1.5-0.5-2c-0.4-0.6-1-0.9-1.8-0.9
	c-0.8,0-1.4,0.3-1.8,0.9c-0.3,0.4-0.5,1.1-0.5,2v2.9c0,0.9,0.2,1.5,0.5,2c0.4,0.6,1,0.9,1.8,0.9c0.7,0,1.3-0.3,1.8-0.9
	C26.5,20.3,26.6,19.7,26.6,18.8z M30.7,21.5h1.5v-8.3h-1.5v6.4c-0.3,0.5-0.6,0.7-0.9,0.7c-0.2,0-0.3-0.1-0.4-0.4c0,0,0-0.2,0-0.6
	v-6.1h-1.5v6.6c0,0.6,0,1,0.1,1.2c0.2,0.4,0.5,0.6,1,0.6c0.5,0,1.1-0.3,1.7-1L30.7,21.5L30.7,21.5z"/>
</svg>
